# xmcd
#
# Track frame offsets: 
#        150
#        18162
#        38587
#        61062
#        83537
#        102937
#        124200
#        143900
#        158875
#        177150
#        210350
#        229925
#        246050
#        264512
#        282750
#        310325
#        328400
#
# Disc length: 4626 seconds
#
# Revision: 9
# Processed by: cddbd v1.5.2PL0 Copyright (c) Steve Scherf et al.
# Submitted via: ExactAudioCopy v1.0b3
#
DISCID=e1121011
DTITLE=Kenny G - Kenny G Greatest Hits
DYEAR=1997
DGENRE=Jazz
TTITLE0=Songbird
TTITLE1=Silhouette
TTITLE2=Forever in Love
TTITLE3=Everytime I Close My Eyes (With Babyface)
TTITLE4=Sentimental
TTITLE5=The Moment
TTITLE6=How Can An Angel Break My Heart (With Toni Braxton)
TTITLE7=Loving You
TTITLE8=You Send Me (With Michael Bolton)
TTITLE9=Havana
TTITLE10=By The Time This Night Is Over (With Peabo Bryson)
TTITLE11=Baby G
TTITLE12=Don't Make Me Wait For Love
TTITLE13=Theme From Dying Young
TTITLE14=All The Way - One For My Baby (And One More For The Road) (Wi
TTITLE14=th Frank Sinatra)
TTITLE15=Innocence
TTITLE16=Asian Dream
EXTD=input by Sin byeong-jin\nfrom korea\nemail: gnyang@chollian.net\n
EXTD=thankyou YEAR: 1997
EXTT0=
EXTT1=
EXTT2=
EXTT3=
EXTT4=
EXTT5=
EXTT6=
EXTT7=
EXTT8=
EXTT9=
EXTT10=
EXTT11=
EXTT12=
EXTT13=
EXTT14=
EXTT15=
EXTT16=
PLAYORDER=
